<svg width="65" height="55" version="1.1" xmlns="http://www.w3.org/2000/svg">
 <g fill-rule="evenodd">
  <path d="m64.43 36.27c0 5-1.7 9.25-5.1 12.75s-7.7 5.25-12.9 5.25-9.75-2-13.65-6-5.85-8.8-5.85-14.4c0-8.6 3.15-16.35 9.45-23.25s13.45-10.35 21.45-10.35c1.6 0 3.7 0.4 6.3 1.2-9.8 2-16.5 7.8-20.1 17.4h1.2c5.8 0 10.45 1.6 13.95 4.8s5.25 7.4 5.25 12.6z" fill="#9d7ad4"/>
  <path d="m38.33 36.27c0 5-1.7 9.25-5.1 12.75s-7.7 5.25-12.9 5.25-9.75-2-13.65-6-5.85-8.8-5.85-14.4c0-8.6 3.15-16.35 9.45-23.25s13.45-10.35 21.45-10.35c1.8 0 3.9 0.4 6.3 1.2-9.8 1.8-16.5 7.6-20.1 17.4h1.5c5.8 0 10.4 1.6 13.8 4.8s5.1 7.4 5.1 12.6z" fill="#008080" fill-opacity=".9216" style="mix-blend-mode:multiply"/>
 </g>
</svg>
