<svg height="15" width="15" version="1.1" viewBox="0 0 10 10" xmlns="http://www.w3.org/2000/svg">
 <path d="m9.3931 7.4549c-0.081463 0.34045-0.18734 0.85641-0.22689 1.3664 0.00825 9.162e-4 0.013471 0.00229 0.013471 0.00229s0.00825 0.34922 0.12073 0.65012c0.11263 0.3009-0.21625 0.47945-0.55228 0.42625-0.39478-0.062187-0.75997-0.073754-0.98104-0.062187-0.13507 0.00687-0.69961 0.085092-0.69961 0 0-0.14477 0.17508-0.21161 0.27731-0.24514 0.26297-0.086009 0.28098-0.20168 0.40658-0.22758 0.076791-0.015575 0.22432 0.079137 0.30457 0.00344-0.14432-0.64369-0.5236-2.4199-0.50649-3.2449-2.5935-0.018668-2.9672-0.73847-3.2501-1.0609-0.079997 0.059668-0.3971 0.41214-0.54072 1.3097-0.07679 0.48084 0.15866 0.99681 0.14363 1.5075-0.018328 0.62538-0.20977 1.195-0.22363 1.6021 2.291e-4 0 4.674e-4 2.291e-4 9.164e-4 2.291e-4 0.14616 0.00458 0.095282-0.42508 0.23312-0.42393 0.20053 9.162e-4 0.088611 0.33304 0.049208 0.49885-0.039312 0.16607-0.27707 0.34437-0.46209 0.31777-0.095034-0.013514-0.18269-0.10937-0.18269-0.10937s-0.018326 0.11407-0.16212 0.10937c-0.14363-0.00458-0.19984-0.10525-0.19984-0.10525s-0.053882 0.10433-0.17345 0.10525c-0.20212 0.0022905-0.19104-0.33996-0.17508-0.58999-0.50533-1.7697 0.17345-2.1566-0.19682-3.2296-0.3046-0.88303 0.064053-2.2038 0-2.1805-0.25047 0.091849-0.53077 0.15403-0.80668 0.1478-0.39595-0.0080167-1.3143-0.17785-1.4841-0.38438-0.21348-0.25972 0.10708-1.0926 0.32794-1.2614-0.027032-0.89782 9.1635e-4 -0.61104 0.46464-1.2144 0.32681-0.42485 1.1159-0.87609 1.4982-0.95721 0.1774 0.21508 1.3934 1.0237 2.0609 1.1169 1.1446 0.15959 1.7434 1.6488 3.3741 1.8396 2.0903 0.2447 2.0604 2.3116 2.0604 2.3116 0.019427 0.176 0.029781 0.3624 0.029781 0.55946 0 0.64966-0.24631 0.79374-0.54187 1.4226" fill="#3fab36" stroke-width="2.5918"/>
</svg>
