<svg xmlns="http://www.w3.org/2000/svg" viewBox="0 0 1900 100" width="1900" height="100"><path d="M10 0C4.46 0 0 4.46 0 10v80c0 5.54 4.46 10 10 10h80c5.54 0 10-4.46 10-10V10c0-5.54-4.46-10-10-10H10" fill="#27af56"/><path d="M50 15.1l21.6 26.4H56.61v43.42H43.37V41.5H28.38l21.6-26.4" fill="#ffffff"/><path d="M110 0c-5.54 0-10 4.46-10 10v80c0 5.54 4.46 10 10 10h80c5.54 0 10-4.46 10-10V10c0-5.54-4.46-10-10-10h-80" fill="#27af56"/><path d="M150 15.1l21.6 26.4h-14.99v43.42h-13.24V41.5h-14.99l21.6-26.4" fill="#ffffff"/><path d="M210 0c-5.54 0-10 4.46-10 10v80c0 5.54 4.46 10 10 10h80c5.54 0 10-4.46 10-10V10c0-5.54-4.46-10-10-10h-80" fill="#27af56"/><path d="M250 15.1l21.6 26.4h-14.99v43.42h-13.24V41.5h-14.99l21.6-26.4" fill="#ffffff"/><path d="M310 0c-5.54 0-10 4.46-10 10v80c0 5.54 4.46 10 10 10h80c5.54 0 10-4.46 10-10V10c0-5.54-4.46-10-10-10h-80" fill="#27af56"/><path d="M350 15.1l21.6 26.4h-14.99v43.42h-13.24V41.5h-14.99l21.6-26.4" fill="#ffffff"/><path d="M410 0c-5.54 0-10 4.46-10 10v80c0 5.54 4.46 10 10 10h80c5.54 0 10-4.46 10-10V10c0-5.54-4.46-10-10-10h-80" fill="#27af56"/><path d="M450 15.1l21.6 26.4h-14.99v43.42h-13.24V41.5h-14.99l21.6-26.4" fill="#ffffff"/><path d="M510 0c-5.54 0-10 4.46-10 10v80c0 5.54 4.46 10 10 10h80c5.54 0 10-4.46 10-10V10c0-5.54-4.46-10-10-10h-80" fill="#27af56"/><path d="M550 15.1l21.6 26.4h-14.99v43.42h-13.24V41.5h-14.99l21.6-26.4" fill="#ffffff"/><path d="M610 0c-5.54 0-10 4.46-10 10v80c0 5.54 4.46 10 10 10h80c5.54 0 10-4.46 10-10V10c0-5.54-4.46-10-10-10h-80" fill="#27af56"/><path d="M650 15.1l21.6 26.4h-14.99v43.42h-13.24V41.5h-14.99l21.6-26.4" fill="#ffffff"/><path d="M710 0c-5.54 0-10 4.46-10 10v80c0 5.54 4.46 10 10 10h80c5.54 0 10-4.46 10-10V10c0-5.54-4.46-10-10-10h-80" fill="#27af56"/><path d="M750 15.1l21.6 26.4h-14.99v43.42h-13.24V41.5h-14.99l21.6-26.4" fill="#ffffff"/><path d="M810 0c-5.54 0-10 4.46-10 10v80c0 5.54 4.46 10 10 10h80c5.54 0 10-4.46 10-10V10c0-5.54-4.46-10-10-10h-80" fill="#27af56"/><path d="M850 15.1l21.6 26.4h-14.99v43.42h-13.24V41.5h-14.99l21.6-26.4" fill="#ffffff"/><path d="M910 0c-5.54 0-10 4.46-10 10v80c0 5.54 4.46 10 10 10h80c5.54 0 10-4.46 10-10V10c0-5.54-4.46-10-10-10h-80" fill="#27af56"/><path d="M950 15.1l21.6 26.4h-14.99v43.42h-13.24v-6.203-6.203-6.203-6.202-6.203-6.203V41.5h-14.99c.24-.293.48-.587.72-.88.24-.293.48-.587.72-.88.24-.293.48-.587.72-.88.24-.293.48-.587.72-.88.24-.293.48-.587.72-.88.24-.293.48-.587.72-.88l4.32-5.28 4.32-5.28 4.32-5.28 1.08-1.32 1.08-1.32 1.08-1.32 1.08-1.32" fill="#ffffff"/><g><path d="M1010 0c-5.54 0-10 4.46-10 10v80c0 5.54 4.46 10 10 10h80c5.54 0 10-4.46 10-10V10c0-5.54-4.46-10-10-10h-80" fill="#27af56"/><path d="M1059.945 32.104c4.633 6.733 9.205 13.892 13.94 21.036-3.331.002-6.672.003-10.024.003 0 2.428.019 5.705.294 8.865.274 3.16-.527 6.022-1.344 8.32-.961 2.276-1.849 4.675-2.387 7.131-.329 2.445-1.702 5.062-1.702 7.283-.269-.353-.113-.515-.133-.597.371-.209.145-.49.182-.554-.083-.037.007.193-.067.01-.62-1.567-1.812-5.888-2.04-7.895-6.443-.046-7.489-1.797-8.312-2.581-.329.145-1.235 1.002-1.719 3.186-.456 1.17-.152 2.426-.458 3.67-.314 1.521-1.049 2.907-1.352 3.896-.268 0-.537.001-.805.001.087.01-.306-1.035-.24-1.032.219.004-.323.811-.688 1.214-.364.404-1.212.838-1.932.773-.231-1.42-.444-3.04-.444-4.428 0-1.387-.045-2.497-.395-3.895-.349-1.398-.486-3.03-.486-4.417 0-1.388-.131-2.521-.422-3.906-.491-1.383-.464-3.601-.426-5.597-.614-3.539-.509-6.238-.362-8.725.073-1.937.157-3.822.166-5.732-3.344-.523-6.762-1.072-10.339-1.725-.58-2.345.478-5.754.483-5.895-.449.026-.97-.019-1.48-.231-.802-.218-2.876-.826-3.127-1.526-.358-.828.583-3.052 1.281-3.659.128-1.289.29-1.858.601-2.337.311-.479.771-.868 1.496-1.799 1.363-1.698 3.008-3.411 4.67-5.02 1.662-1.61 3.341-3.114 4.773-4.394 1.398-.657 5.322.129 7.913-.825 3.027.093 4.725 3.422 8.936 3.59 5.326.301 5.495 5.034 5.737 4.739.289.133.555.291.797.476.241 1.285-.117 1.34-.594 2.576" fill="#ffffff"/></g><g><path d="M1110 0c-5.54 0-10 4.46-10 10v80c0 5.54 4.46 10 10 10h80c5.54 0 10-4.46 10-10V10c0-5.54-4.46-10-10-10h-80" fill="#27af56"/><path d="M1166.194 42.788c3.019 5.433 5.941 11.562 9.126 17.665-2.284.004-4.584.006-6.903.006 0 1.679.031 4.742.477 7.614.447 2.871-.856 5.258-2.187 6.726-1.565 1.433-3.011 3.067-3.887 4.792-.535 1.709-2.771 3.696-2.771 5.039-.187-.574.321-.839.539-.971.856-.341.741-.799 1.053-.902.118-.062.516.313.648.015-.758-2.55-2.447-9.587-2.566-12.855-10.365-.074-11.943-2.926-13.156-4.203-.41.237-1.759 1.633-2.421 5.189-.49 1.905.256 3.949.01 5.974-.259 2.478-1.204 4.735-1.444 6.345-.186 0-.371.001-.555.001.393.016.005-1.684.365-1.679.608.005-.022 1.319-.364 1.976-.341.658-1.47 1.364-2.389 1.259-.376-1.014-.724-2.353-.724-3.313s-.072-1.468-.642-2.446c-.569-.977-.792-2.336-.792-3.295 0-.96-.213-1.507-.687-2.463-.8-.952-.756-3.265-.693-5.216-1.001-4.464-.829-7.559-.591-10.31.12-1.855.256-3.624.27-5.436-2.304-.851-4.731-1.745-7.416-2.808-1.096-3.634.476-9.002.334-9.047-.881.228-1.88.338-2.862.178-1.457-.171-4.984-.977-5.544-1.932-.734-1.165.647-4.601 1.634-5.406.058-1.914.17-2.656.525-3.251.356-.596.954-1.046 1.984-2.377 1.315-1.658 3.089-3.343 4.89-4.857 1.801-1.515 3.631-2.859 5.057-3.837 1.372.036 6.856 2.422 10.172 1.974 4.701.428 7.241 6.124 13.871 6.675 8.446.765 8.495 8.75 8.662 8.545.244.493.452 1.027.619 1.604.167 2.369-.642 2.736-1.645 5.025" fill="#ffffff"/></g><g><path d="M1210 0c-5.54 0-10 4.46-10 10v80c0 5.54 4.46 10 10 10h80c5.54 0 10-4.46 10-10V10c0-5.54-4.46-10-10-10h-80" fill="#27af56"/><path d="M1270.704 50.499c1.854 4.495 3.585 9.88 5.653 15.233-1.53.005-3.079.007-4.652.007 0 1.139.04 4.047.611 6.711.57 2.664-1.096 4.708-2.797 5.577-2 .824-3.85 1.906-4.969 3.103-.684 1.177-3.544 2.71-3.544 3.419-.126-.733.634-1.072 1.026-1.242 1.205-.435 1.17-1.021 1.68-1.153.263-.079.883.401 1.164.019-.858-3.26-2.905-12.256-2.945-16.435-13.196-.094-15.157-3.741-16.652-5.373-.468.303-2.138 2.087-2.929 6.634-.515 2.435.551 5.049.349 7.638-.219 3.168-1.315 6.053-1.512 8.112-.125 0-.25.001-.374.001.614.021.23-2.153.802-2.147.89.007.196 1.687-.13 2.527-.325.841-1.655 1.744-2.719 1.609-.481-.719-.925-1.856-.925-2.507 0-.652-.093-.725-.822-1.4-.727-.673-1.012-1.835-1.012-2.486 0-.651-.272-.774-.878-1.42-1.024-.642-.967-3.024-.887-4.942-1.279-5.131-1.06-8.513-.755-11.454.153-1.796.327-3.482.346-5.222-1.555-1.088-3.266-2.231-5.308-3.591-1.467-4.564.476-11.344.227-11.32-1.193.372-2.537.595-3.859.471-1.93-.136-6.506-1.085-7.289-2.224-1.005-1.408.694-5.719 1.888-6.666.008-2.366.084-3.232.472-3.912.387-.68 1.085-1.173 2.335-2.794 1.281-1.63 3.147-3.294 5.049-4.74 1.902-1.445 3.84-2.674 5.263-3.434 1.352.535 7.963 4.077 11.801 3.994 5.91.67 9.057 8.075 17.433 8.902 10.698 1.101 10.661 11.431 10.774 11.293.212.752.377 1.558.491 2.418.113 3.151-1.021 3.743-2.405 6.791" fill="#ffffff"/></g><g><path d="M1310 0c-5.54 0-10 4.46-10 10v80c0 5.54 4.46 10 10 10h80c5.54 0 10-4.46 10-10V10c0-5.54-4.46-10-10-10h-80" fill="#27af56"/><path d="M1374.039 56.202c.994 3.802 1.844 8.637 3.084 13.434-.971.006-1.964.008-2.986.008 0 .74.047 3.534.709 6.044.663 2.51-1.272 4.3-3.248 4.727-2.322.374-4.469 1.046-5.769 1.854-.794.783-4.114 1.98-4.114 2.22-.082-.851.865-1.245 1.384-1.442 1.464-.505 1.488-1.186 2.145-1.338.37-.092 1.155.465 1.545.022-.93-3.786-3.243-14.231-3.225-19.084-15.29-.109-17.535-4.343-19.238-6.238-.511.351-2.418 2.423-3.304 7.702-.533 2.828.769 5.863.599 8.87-.189 3.678-1.398 7.028-1.561 9.418-.081 0-.161.002-.241.002.778.024.397-2.5 1.126-2.493 1.097.008.356 1.958.043 2.933-.313.977-1.793 2.026-2.964 1.869-.558-.502-1.074-1.489-1.074-1.912 0-.423-.108-.175-.954-.625-.845-.449-1.175-1.465-1.175-1.888 0-.423-.317-.232-1.02-.65-1.188-.411-1.123-2.844-1.029-4.738-1.486-5.625-1.231-9.218-.877-12.3.177-1.752.379-3.377.401-5.064-1-1.264-2.181-2.59-3.747-4.169-1.743-5.253.475-13.079.147-13.003-1.424.48-3.023.786-4.597.689-2.279-.111-7.632-1.166-8.579-2.441-1.206-1.587.728-6.545 2.076-7.598-.03-2.7.021-3.659.432-4.401s1.183-1.267 2.595-3.102c1.256-1.609 3.191-3.257 5.167-4.652 1.976-1.396 3.994-2.538 5.414-3.137 1.338.905 8.782 5.3 13.007 5.488 6.805.849 10.401 9.517 20.068 10.549 12.363 1.349 12.262 13.414 12.336 13.325.188.944.322 1.951.396 3.02.073 3.73-1.302 4.487-2.966 8.098" fill="#ffffff"/></g><g><path d="M1410 0c-5.54 0-10 4.46-10 10v80c0 5.54 4.46 10 10 10h80c5.54 0 10-4.46 10-10V10c0-5.54-4.46-10-10-10h-80" fill="#27af56"/><path d="M1476.489 60.39c.361 3.293.564 7.723 1.197 12.113-.561.006-1.147.008-1.764.008 0 .447.052 3.157.782 5.554.73 2.397-1.401 4.001-3.579 4.102-2.558.044-4.925.416-6.357.938-.875.494-4.533 1.444-4.533 1.34-.05-.938 1.035-1.372 1.648-1.588 1.654-.558 1.721-1.307 2.486-1.476.448-.1 1.354.513 1.825.025-.984-4.171-3.492-15.681-3.431-21.028-16.828-.121-19.28-4.786-21.137-6.874-.543.387-2.623 2.67-3.579 8.487-.546 3.116.929 6.46.783 9.773-.168 4.053-1.459 7.744-1.598 10.378-.048 0-.095.002-.142.002.898.026.519-2.755 1.362-2.747 1.25.009.475 2.158.171 3.233-.304 1.076-1.895 2.231-3.143 2.059-.616-.343-1.184-1.22-1.184-1.475 0-.256-.119.228-1.051-.057-.931-.284-1.295-1.193-1.295-1.448 0-.255-.349.165-1.124-.084-1.309-.243-1.237-2.713-1.134-4.589-1.637-5.988-1.356-9.736-.966-12.921.195-1.721.418-3.3.442-4.948-.594-1.393-1.385-2.855-2.602-4.595-1.944-5.758.475-14.351.089-14.238-1.594.559-3.38.926-5.139.85-2.536-.093-8.458-1.225-9.527-2.6-1.353-1.719.754-7.153 2.215-8.283-.058-2.946-.026-3.972.402-4.76.429-.787 1.255-1.337 2.787-3.328 1.236-1.594 3.222-3.23 5.253-4.589 2.031-1.358 4.107-2.438 5.525-2.918 1.328 1.176 9.384 6.199 13.892 6.586 7.462.98 11.387 10.576 22.003 11.757 13.586 1.532 13.438 14.871 13.482 14.817.171 1.086.282 2.24.327 3.462.044 4.156-1.508 5.035-3.378 9.059" fill="#ffffff"/></g><g><path d="M1510 0c-5.54 0-10 4.46-10 10v80c0 5.54 4.46 10 10 10h80c5.54 0 10-4.46 10-10V10c0-5.54-4.46-10-10-10h-80" fill="#27af56"/><path d="M1578.228 63.363c-.088 2.932-.345 7.075-.143 11.175-.269.007-.565.009-.895.009 0 .239.055 2.889.834 5.206.778 2.317-1.494 3.788-3.814 3.659-2.727-.191-5.249-.032-6.775.286-.932.289-4.831 1.065-4.831.716-.027-1 1.156-1.462 1.835-1.693 1.79-.594 1.888-1.392 2.729-1.572.504-.107 1.496.547 2.024.026-1.023-4.445-3.669-16.71-3.577-22.408-17.92-.129-20.52-5.1-22.486-7.326-.565.413-2.769 2.846-3.774 9.045-.556 3.32 1.043 6.884.913 10.415-.153 4.319-1.502 8.252-1.624 11.059-.024 0-.049.002-.072.002.983.028.605-2.936 1.531-2.928 1.358.01.558 2.3.26 3.445-.297 1.147-1.966 2.378-3.27 2.194-.656-.229-1.262-1.028-1.262-1.164 0-.137-.126.515-1.12.346-.992-.167-1.379-.999-1.379-1.135 0-.137-.372.447-1.198.318-1.395-.124-1.319-2.62-1.209-4.484-1.744-6.245-1.445-10.104-1.029-13.362.208-1.697.445-3.245.471-4.865-.305-1.485-.82-3.042-1.789-4.896-2.088-6.117.474-15.255.047-15.116-1.714.615-3.633 1.026-5.523.963-2.718-.079-9.045-1.267-10.199-2.712-1.458-1.813.771-7.584 2.313-8.769-.078-3.12-.06-4.194.381-5.014.441-.821 1.305-1.387 2.922-3.489 1.223-1.583 3.245-3.212 5.315-4.544 2.069-1.332 4.187-2.367 5.604-2.763 1.321 1.369 9.811 6.837 14.52 7.364 7.928 1.074 12.088 11.329 23.376 12.617 14.455 1.66 14.274 15.905 14.297 15.876.159 1.186.253 2.444.277 3.776.024 4.458-1.653 5.423-3.671 9.74" fill="#ffffff"/></g><g><path d="M1610 0c-5.54 0-10 4.46-10 10v80c0 5.54 4.46 10 10 10h80c5.54 0 10-4.46 10-10V10c0-5.54-4.46-10-10-10h-80" fill="#27af56"/><path d="M1679.375 65.326c-.384 2.692-.944 6.647-1.026 10.555-.078.007-.182.01-.322.01 0 .101.057 2.712.867 4.976.81 2.264-1.554 3.648-3.969 3.366-2.837-.346-5.462-.327-7.05-.143-.97.153-5.027.813-5.027.303-.012-1.04 1.235-1.521 1.959-1.761 1.878-.618 1.996-1.45 2.888-1.636.541-.112 1.589.568 2.155.027-1.048-4.626-3.785-17.39-3.674-23.319-18.639-.134-21.337-5.308-23.375-7.624-.58.43-2.865 2.962-3.903 9.412-.562 3.456 1.118 7.164.999 10.839-.143 4.494-1.53 8.588-1.64 11.509-.01 0-.019.002-.027.002 1.039.029.663-3.056 1.642-3.047 1.43.01.614 2.393.32 3.585-.293 1.194-2.013 2.475-3.354 2.283-.683-.155-1.313-.902-1.313-.959 0-.058-.132.703-1.166.613-1.032-.09-1.436-.872-1.436-.93 0-.058-.386.634-1.246.583-1.452-.044-1.372-2.559-1.258-4.414-1.815-6.415-1.504-10.346-1.071-13.653.217-1.682.463-3.208.49-4.811-.113-1.544-.447-3.165-1.252-5.095-2.182-6.354.474-15.851.02-15.694-1.793.652-3.801 1.091-5.777 1.038-2.838-.07-9.432-1.295-10.643-2.787-1.527-1.875.783-7.869 2.377-9.09-.09-3.235-.081-4.341.368-5.182.449-.842 1.339-1.419 3.011-3.595 1.215-1.576 3.26-3.199 5.355-4.514 2.096-1.314 4.241-2.32 5.657-2.661 1.316 1.497 10.093 7.258 14.935 7.879 8.235 1.135 12.55 11.825 24.283 13.183 15.028 1.746 14.824 16.588 14.834 16.575.15 1.253.234 2.58.244 3.984.01 4.656-1.75 5.679-3.864 10.189" fill="#ffffff"/></g><g><path d="M1710 0c-5.54 0-10 4.46-10 10v80c0 5.54 4.46 10 10 10h80c5.54 0 10-4.46 10-10V10c0-5.54-4.46-10-10-10h-80" fill="#27af56"/><path d="M1780.018 66.424c-.55 2.559-1.28 6.408-1.521 10.209.03.007.032.01-.001.01 0 .024.058 2.613.886 4.848.827 2.234-1.589 3.569-4.056 3.202-2.9-.432-5.581-.493-7.205-.384-.991.078-5.137.673-5.137.073-.003-1.063 1.28-1.555 2.028-1.8 1.929-.632 2.058-1.481 2.978-1.672.562-.114 1.642.581 2.229.028-1.063-4.727-3.85-17.77-3.728-23.83-19.043-.137-21.796-5.423-23.873-7.79-.589.439-2.919 3.026-3.975 9.618-.566 3.531 1.159 7.321 1.046 11.075-.136 4.594-1.546 8.776-1.65 11.761l-.001.002c1.071.03.695-3.122 1.705-3.113 1.47.01.645 2.446.353 3.663-.291 1.22-2.039 2.529-3.401 2.334-.697-.113-1.342-.831-1.342-.845 0-.014-.134.809-1.191.762-1.055-.047-1.467-.801-1.467-.815 0-.013-.395.739-1.273.732-1.484 0-1.403-2.524-1.286-4.375-1.855-6.51-1.537-10.482-1.095-13.816.222-1.674.474-3.188.501-4.78-.007-1.579-.238-3.235-.951-5.207-2.236-6.486.474-16.185.004-16.018-1.838.673-3.894 1.128-5.919 1.08-2.906-.066-9.649-1.31-10.892-2.829-1.565-1.909.79-8.028 2.414-9.269-.097-3.299-.094-4.423.36-5.277.453-.853 1.357-1.437 3.062-3.654 1.209-1.572 3.267-3.192 5.377-4.497 2.11-1.304 4.271-2.294 5.686-2.603 1.313 1.567 10.251 7.493 15.167 8.166 8.408 1.169 12.809 12.103 24.79 13.5 15.349 1.794 15.133 16.97 15.136 16.967.145 1.289.223 2.655.225 4.099.003 4.768-1.803 5.823-3.971 10.441" fill="#ffffff"/></g><g><path d="M1810 0c-5.54 0-10 4.46-10 10v80c0 5.54 4.46 10 10 10h80c5.54 0 10-4.46 10-10V10c0-5.54-4.46-10-10-10h-80" fill="#27af56"/><path d="M1880.22 66.77c-.602 2.517-1.385 6.332-1.677 10.1.064.007.1.01.1.01s.059 2.582.892 4.807c.833 2.225-1.599 3.545-4.083 3.151-2.919-.46-5.619-.545-7.253-.46-.998.054-5.172.629-5.172 0 0-1.07 1.294-1.565 2.05-1.812 1.944-.636 2.077-1.491 3.006-1.683.568-.115 1.658.585 2.252.028-1.067-4.759-3.871-17.89-3.745-23.99-19.17-.138-21.94-5.46-24.03-7.843-.591.442-2.936 3.047-3.998 9.683-.567 3.555 1.173 7.37 1.062 11.15-.135 4.624-1.551 8.835-1.653 11.84.002 0 .004.002.007.002 1.081.03.705-3.143 1.724-3.134 1.483.01.655 2.462.364 3.688-.29 1.228-2.048 2.546-3.416 2.349-.702-.1-1.351-.809-1.351-.809s-.135.843-1.199.809c-1.062-.033-1.477-.778-1.477-.778s-.398.771-1.282.778c-1.494.014-1.412-2.513-1.294-4.362-1.868-6.54-1.547-10.525-1.102-13.867.223-1.672.476-3.182.504-4.771.027-1.59-.173-3.257-.857-5.242-2.252-6.528.474-16.29 0-16.12-1.852.679-3.924 1.139-5.964 1.093-2.927-.064-9.717-1.315-10.97-2.842-1.578-1.92.792-8.078 2.425-9.326-.1-3.319-.098-4.449.357-5.306.456-.857 1.364-1.442 3.078-3.673 1.208-1.571 3.27-3.19 5.385-4.491 2.114-1.302 4.28-2.286 5.695-2.586 1.312 1.59 10.3 7.568 15.24 8.257 8.462 1.18 12.89 12.19 24.95 13.6 15.45 1.809 15.23 17.09 15.23 17.09.144 1.301.22 2.679.22 4.136 0 4.803-1.821 5.868-4.006 10.52" fill="#ffffff"/></g></svg>
