<svg width="100" height="20" viewBox="0 0 100 20" xmlns="http://www.w3.org/2000/svg">
 <g fill="#0ca1a5">
  <path d="m10 1 2.362 7.258 7.642-0.00187-6.183 4.485 2.362 7.258-6.183-4.487-6.181 4.487 2.362-7.258-6.183-4.485 7.642 0.00187s2.36-7.258 2.36-7.258"/>
  <path d="m29.93 1 2.362 7.258 7.642-0.00187-6.183 4.485 2.362 7.258-6.183-4.487-6.181 4.487s2.362-7.258 2.362-7.258l-6.183-4.485 7.642 0.00187s2.36-7.258 2.36-7.258"/>
 </g>
 <g fill="#ccc">
  <path d="m50.03 1s2.36 7.258 2.36 7.258l7.642-0.00187-6.183 4.485s2.364 7.258 2.364 7.258l-6.183-4.487-6.183 4.487s2.362-7.258 2.362-7.258l-6.183-4.485 7.642 0.00187 2.362-7.258"/>
  <path d="m70.14 1s2.362 7.257 2.362 7.257h7.642l-6.183 4.485 2.362 7.257-6.183-4.485-6.181 4.485s2.362-7.257 2.362-7.257l-6.183-4.485h7.642s2.36-7.257 2.36-7.257"/>
  <path d="m90 1s2.362 7.257 2.362 7.257h7.64l-6.181 4.485 2.362 7.257-6.183-4.485-6.183 4.485 2.362-7.257-6.181-4.485h7.64l2.362-7.257"/>
 </g>
</svg>
